<svg fill="#FFFFFF" xmlns="http://www.w3.org/2000/svg"  viewBox="0 0 50 50" width="50px" height="50px"><path d="M 9.0332031 8 C 8.2183594 7.982541 7.4714375 8.4648125 7.1328125 9.2890625 L 2.9980469 21 L 3.9570312 21 L 10.460938 15.953125 L 11 10.005859 C 11 9.0358594 10.336719 8.2270625 9.3867188 8.0390625 C 9.2685938 8.0156875 9.1496094 8.0024941 9.0332031 8 z M 40.966797 8 C 40.850402 8.002543 40.733359 8.0158125 40.615234 8.0390625 C 39.665234 8.2270625 39.001859 9.0347031 39.005859 10.095703 L 39.529297 15.865234 L 46.039062 21 L 47.001953 21 L 42.849609 9.2421875 C 42.528484 8.4581875 41.781559 7.9821992 40.966797 8 z M 25 13 C 22.243 13 20 15.243 20 18 L 20 19 C 20 21.757 22.243 24 25 24 C 27.757 24 30 21.757 30 19 L 30 18 C 30 15.243 27.757 13 25 13 z M 15.371094 16 C 14.266094 16 13.176734 16.374688 12.302734 17.054688 L 8.5136719 20 L 18.076172 20 C 18.029172 19.673 18 19.34 18 19 L 18 18 C 18 17.305 18.104922 16.634 18.294922 16 L 15.371094 16 z M 25 16 C 26.654 16 28 17.346 28 19 C 28 20.654 26.654 22 25 22 C 23.346 22 22 20.654 22 19 C 22 17.346 23.346 16 25 16 z M 31.705078 16 C 31.895078 16.634 32 17.305 32 18 L 32 19 C 32 19.34 31.970828 19.673 31.923828 20 L 41.542969 20 L 37.828125 17.072266 C 36.949125 16.381266 35.852375 16 34.734375 16 L 31.705078 16 z M 25 18 A 1 1 0 0 0 24 19 A 1 1 0 0 0 25 20 A 1 1 0 0 0 26 19 A 1 1 0 0 0 25 18 z M 8 22 C 6.9940597 22 6.0844177 22.384961 5.3808594 23 L 3 23 C 1.3592534 23 0 24.347218 0 25.992188 L 0 31 C 0 32.837145 0.50268365 34.341997 1.4160156 35.396484 C 2.1018896 36.188361 3.0135172 36.695108 4 36.898438 L 4 38 C 4 40.206 5.794 42 8 42 L 42 42 C 44.206 42 46 40.206 46 38 L 46 36.898438 C 46.986483 36.695108 47.89811 36.188361 48.583984 35.396484 C 49.497316 34.341997 50 32.837145 50 31 L 50 26 C 50 24.35503 48.64497 23 47 23 L 44.619141 23 C 43.915582 22.384961 43.00594 22 42 22 L 31.314453 22 C 30.188453 24.361 27.785 26 25 26 C 22.215 26 19.811547 24.361 18.685547 22 L 8 22 z M 3 25 L 4.1425781 25 C 4.0589183 25.321703 4 25.652438 4 26 L 4 34.822266 C 3.5936567 34.674825 3.2326035 34.439877 2.9277344 34.087891 C 2.3933164 33.470878 2 32.476855 2 31 L 2 25.992188 C 2 25.427157 2.4307466 25 3 25 z M 45.857422 25 L 47 25 C 47.56503 25 48 25.43497 48 26 L 48 31 C 48 32.476855 47.606684 33.470878 47.072266 34.087891 C 46.767396 34.439877 46.406343 34.674825 46 34.822266 L 46 26 C 46 25.652438 45.941082 25.321703 45.857422 25 z M 6.4140625 25.261719 C 6.4359531 25.256641 6.460125 25.257984 6.484375 25.271484 L 19.992188 31 L 30.007812 31 L 43.515625 25.271484 C 43.612625 25.217484 43.712625 25.338828 43.640625 25.423828 L 33.070312 37.966797 C 33.032313 38.011797 32.964828 38.013656 32.923828 37.972656 L 28.824219 33 L 21.175781 33 L 17.076172 37.972656 C 17.035172 38.013656 16.967688 38.011797 16.929688 37.966797 L 6.359375 25.423828 C 6.305375 25.360078 6.3483906 25.276953 6.4140625 25.261719 z"/></svg>